<svg width="120" height="104" viewBox="0 0 120 104" fill="none" xmlns="http://www.w3.org/2000/svg">
<path d="M62.7176 49.6991C94.1452 77.1032 105.646 115.347 88.4047 135.12C71.1637 154.892 31.71 148.705 0.282379 121.301C-31.1452 93.8969 -42.6457 55.6528 -25.4047 35.8805C-8.16372 16.1081 31.29 22.2949 62.7176 49.6991Z" fill="#C7CAEB"/>
<mask id="mask0_0_1" style="mask-type:alpha" maskUnits="userSpaceOnUse" x="-34" y="24" width="131" height="123">
<ellipse cx="31.5" cy="85.4999" rx="47.5" ry="75.5" transform="rotate(-48.9123 31.5 85.4999)" fill="#4953BE"/>
</mask>
<g mask="url(#mask0_0_1)">
<rect width="193.596" height="2.89" transform="matrix(0.798849 -0.601532 0.485994 0.873962 -17.6945 57.2479)" fill="white"/>
<rect width="193.596" height="2.89" transform="matrix(0.798849 -0.601532 0.485994 0.873962 -22.4465 48.7024)" fill="white"/>
<rect width="193.596" height="2.89" transform="matrix(0.798849 -0.601532 0.485994 0.873962 -27.1985 40.1569)" fill="white"/>
<rect width="193.596" height="2.89" transform="matrix(0.798849 -0.601532 0.485994 0.873962 -12.9425 65.7935)" fill="white"/>
<rect width="193.596" height="2.89" transform="matrix(0.798849 -0.601532 0.485994 0.873962 -8.19043 74.339)" fill="white"/>
<rect width="193.596" height="2.89" transform="matrix(0.798849 -0.601532 0.485994 0.873962 -3.43835 82.8845)" fill="white"/>
<rect width="193.596" height="2.89" transform="matrix(0.798849 -0.601532 0.485994 0.873962 1.3136 91.4301)" fill="white"/>
<rect width="193.596" height="2.89" transform="matrix(0.798849 -0.601532 0.485994 0.873962 11.562 120.683)" fill="white"/>
<rect width="193.596" height="2.89" transform="matrix(0.798849 -0.601532 0.485994 0.873962 6.80994 112.138)" fill="white"/>
<rect width="193.596" height="2.89" transform="matrix(0.798849 -0.601532 0.485994 0.873962 2.05798 103.592)" fill="white"/>
<rect width="193.596" height="2.89" transform="matrix(0.798849 -0.601532 0.485994 0.873962 16.3141 129.229)" fill="white"/>
<rect width="193.596" height="2.89" transform="matrix(0.798849 -0.601532 0.485994 0.873962 21.066 137.774)" fill="white"/>
<rect width="193.596" height="2.89" transform="matrix(0.798849 -0.601532 0.485994 0.873962 25.8181 146.32)" fill="white"/>
<rect width="193.596" height="2.89" transform="matrix(0.798849 -0.601532 0.485994 0.873962 30.5701 154.866)" fill="white"/>
</g>
</svg>
